<svg height="682pt" viewBox="-64 -21 682 682.66669" width="682pt" xmlns="http://www.w3.org/2000/svg"><path d="m253.242188 175.3125h42.289062v42.523438h-42.289062zm0 0"/><path d="m430.449219 0h-312.117188c-66.734375 0-120.832031 54.394531-120.832031 121.488281v313.828125c0 67.089844 54.09375 121.484375 120.832031 121.484375h103.878907l51.640624 83.199219 51.65625-83.199219h104.941407c66.730469 0 120.835937-54.394531 120.835937-121.484375v-313.832031c0-67.089844-54.105468-121.484375-120.835937-121.484375zm-267.613281 217.835938h44.792968v-42.523438h-44.792968v-45.859375h44.792968v-45.03125h45.613282v45.03125h42.289062v-45.03125h45.613281v45.03125h44.777344v45.859375h-44.777344v42.53125h44.777344v45.851562h-44.777344v45.03125h-45.613281v-45.03125h-42.292969v45.03125h-45.617187v-45.03125h-44.785156zm320.792968 140.351562s-60.214844 114.023438-203.179687 114.023438c-1.980469 0-9.773438 0-11.753907 0-142.960937 0-203.175781-114.023438-203.175781-114.023438s-3.898437-7.425781-3.898437-15.429688c-.242188-5.773437 2.5625-14.054687 9.9375-18.933593 4.101562-2.710938 7.976562-4.054688 11.570312-4.472657 17.21875-1.835937 27.195313 9.4375 35.398438 22.304688 9.0625 14.203125 61.332031 76.425781 156.042968 78.804688 94.710938-2.378907 146.988282-64.601563 156.046876-78.804688 8.203124-12.867188 18.539062-24.160156 35.394531-22.304688 3.59375.417969 7.476562 1.761719 11.570312 4.472657 7.375 4.878906 10.25 11.746093 9.988281 18.929687-.578124 10.5625-3.941406 15.433594-3.941406 15.433594zm0 0"/></svg>