<svg height="681pt" viewBox="-21 -181 681.33076 681" width="681pt" xmlns="http://www.w3.org/2000/svg"><path d="m638.746094 177.550781c0 20.453125-16.578125 37.03125-37.03125 37.03125-20.449219 0-37.03125-16.578125-37.03125-37.03125s16.582031-37.03125 37.03125-37.03125c20.453125 0 37.03125 16.578125 37.03125 37.03125zm0 0"/><path d="m132.085938 173.535156 42.394531-40.507812c12.917969-12.34375 13.386719-32.816406 1.039062-45.734375-12.34375-12.914063-32.816406-13.382813-45.734375-1.039063l-65.085937 62.191406v-126.660156c0-17.867187-14.484375-32.347656-32.351563-32.347656-17.863281 0-32.347656 14.480469-32.347656 32.347656v253.914063c0 17.863281 14.484375 32.34375 32.347656 32.34375 17.867188.003906 32.351563-14.480469 32.351563-32.34375v-37.769531l20.234375-19.335938 56.242187 76.296875v.003906c10.601563 14.375 30.851563 17.441407 45.234375 6.84375 14.378906-10.605469 17.445313-30.855469 6.839844-45.234375zm0 0"/><path d="m272.050781 76.253906c-17.863281 0-32.347656 14.484375-32.347656 32.347656v167.097657c0 17.863281 14.484375 32.34375 32.347656 32.34375 17.867188.003906 32.351563-14.480469 32.351563-32.34375v-167.097657c-.007813-17.863281-14.484375-32.347656-32.351563-32.347656zm0 0"/><path d="m480.765625 173.535156 42.390625-40.507812c12.921875-12.34375 13.382812-32.816406 1.042969-45.734375-12.34375-12.914063-32.820313-13.382813-45.734375-1.039063l-65.09375 62.191406v-126.660156c0-17.867187-14.480469-32.347656-32.347656-32.347656-17.859376 0-32.34375 14.480469-32.34375 32.347656v253.914063c0 17.863281 14.484374 32.34375 32.34375 32.34375 17.867187 0 32.347656-14.484375 32.347656-32.34375v-37.769531l20.238281-19.335938 56.246094 76.296875v.003906c10.597656 14.375 30.851562 17.441407 45.230469 6.84375 14.382812-10.605469 17.441406-30.855469 6.84375-45.234375zm0 0"/></svg>