<svg height="682pt" viewBox="-21 -22 682.66535 682" width="682pt" xmlns="http://www.w3.org/2000/svg"><path d="m617.347656 372.777344c-.207031 1.125-.558594-1.015625 0 0 3.300782-17.984375 5.035156-36.386719 5.035156-54.785156 0-40.796876-7.984374-80.371094-23.765624-117.632813-15.226563-35.988281-37.007813-68.308594-64.777344-96.058594-27.726563-27.753906-60.070313-49.53125-96.042969-64.753906-37.246094-15.761719-76.824219-23.75-117.617187-23.75-19.226563 0-38.484376 1.804687-57.226563 5.40625-.039063.007813-.140625.019531-.140625.019531-25.714844-13.671875-54.628906-20.972656-83.902344-20.972656-47.789062 0-92.71875 18.609375-126.507812 52.410156-33.785156 33.789063-52.402344 78.722656-52.402344 126.507813 0 30.417969 7.828125 60.320312 22.507812 86.738281-2.976562 17.121094-4.550781 34.617188-4.550781 52.085938 0 40.804687 7.988281 80.375 23.769531 117.640624 15.203126 36.003907 36.992188 68.300782 64.738282 96.054688 27.769531 27.75 60.066406 49.5625 96.078125 64.746094 37.25 15.792968 76.839843 23.785156 117.632812 23.785156 17.757813 0 35.554688-1.621094 52.929688-4.703125 26.765625 15.144531 57.070312 23.191406 88.015625 23.191406 47.777344 0 92.6875-18.574219 126.480468-52.390625 33.796876-33.769531 52.398438-78.710937 52.398438-126.496094 0-30.519531-7.867188-60.519531-22.652344-87.042968zm-295.964844 130.296875c-107.363281 0-155.398437-52.78125-155.398437-92.34375 0-20.285157 14.980469-34.511719 35.625-34.511719 45.949219 0 34.050781 65.972656 119.773437 65.972656 43.886719 0 68.117188-23.828125 68.117188-48.210937 0-14.667969-7.234375-30.925781-36.132812-38.046875l-95.492188-23.839844c-76.910156-19.285156-90.863281-60.863281-90.863281-99.945312 0-81.144532 76.402343-111.609376 148.148437-111.609376 66.09375 0 144.003906 36.527344 144.003906 85.207032 0 20.859375-18.0625 32.988281-38.699218 32.988281-39.210938 0-32-54.273437-110.984375-54.273437-39.191407 0-60.902344 17.75-60.902344 43.144531 0 25.351562 30.957031 33.449219 57.832031 39.570312l70.683594 15.691407c77.425781 17.25 97.054688 62.453124 97.054688 105.03125.007812 65.9375-50.609376 115.175781-152.765626 115.175781zm0 0"/></svg>