<svg height="682pt" viewBox="-87 -21 682 682.66669" width="682pt" xmlns="http://www.w3.org/2000/svg"><path d="m254.042969 0c-144 0-258.042969 119.828125-258.042969 264.171875 0 150.808594 200.171875 375.828125 258.042969 375.828125 50.726562 0 250.894531-225.019531 250.894531-375.828125 0-144.34375-114.042969-264.171875-250.894531-264.171875zm.683593 401.019531c-89.535156 0-158.644531-67.402343-158.644531-146.039062 0-33.363281 10.214844-63.660157 27.578125-88.511719 5.445313 27.914062 30.300782 49.019531 60.597656 49.019531 34.042969 0 61.617188-26.894531 61.617188-60.253906 0-21.445313-11.574219-40.171875-28.9375-50.722656 11.914062-2.722657 24.511719-4.085938 37.789062-4.085938 80.679688 0 149.785157 67.402344 149.785157 154.550781 0 78.640626-69.105469 146.042969-149.785157 146.042969zm0 0"/></svg>