<svg height="682pt" viewBox="-21 -56 682.66669 682" width="682pt" xmlns="http://www.w3.org/2000/svg"><path d="m429.929688 388.257812c-27.566407 0-50.042969-22.472656-50.042969-50.042968 0-27.566406 22.476562-50.042969 50.042969-50.042969 27.570312 0 50.046874 22.476563 50.046874 50.042969 0 27.570312-22.476562 50.042968-50.046874 50.042968m8.839843 82.128907c-34.195312 34.097656-99.609375 36.789062-118.816406 36.789062-19.210937 0-84.71875-2.691406-118.820313-36.789062-5.085937-5.089844-5.085937-13.253907 0-18.347657 5.09375-5.089843 13.257813-5.089843 18.351563 0 21.511719 21.519532 67.523437 29.203126 100.46875 29.203126 32.851563 0 78.953125-7.683594 100.472656-29.203126 5.085938-5.089843 13.25-5.089843 18.34375 0 4.996094 5.09375 4.996094 13.257813 0 18.347657m-279.035156-132.167969c0-27.566406 22.476563-50.042969 50.046875-50.042969 27.566406 0 50.042969 22.476563 50.042969 50.042969s-22.476563 50.046875-50.042969 50.046875c-27.570312-.007813-50.046875-22.480469-50.046875-50.046875m480.265625-50.042969c0-38.710937-31.3125-70.023437-70.023438-70.023437-18.921874 0-36.023437 7.488281-48.601562 19.691406-47.835938-34.578125-113.820312-56.863281-187.304688-59.457031l31.890626-150.132813 104.21875 22.191406c1.25 26.511719 22.953124 47.644532 49.757812 47.644532 27.660156 0 50.042969-22.382813 50.042969-50.046875 0-27.660157-22.382813-50.042969-50.042969-50.042969-19.695312 0-36.503906 11.429688-44.667969 27.949219l-116.417969-24.78125c-3.265624-.671875-6.625-.089844-9.414062 1.730469-2.78125 1.824218-4.707031 4.609374-5.375 7.875 0 0-34.964844 166.558593-34.964844 167.519531-74.824218 1.917969-142.0625 24.300781-190.664062 59.359375-12.582032-12.101563-29.585938-19.5-48.410156-19.5-38.710938 0-70.023438 31.40625-70.023438 70.023437 0 28.429688 17 52.925781 41.398438 63.871094-1.054688 6.921875-1.632813 14.023437-1.632813 21.230469 0 107.769531 125.445313 195.085937 280.1875 195.085937 154.738281 0 280.183594-87.316406 280.183594-195.085937 0-7.109375-.574219-14.121094-1.628907-21.035156 24.300782-10.949219 41.492188-35.441407 41.492188-64.066407"/></svg>